<?xml version="1.0" encoding="UTF-8" standalone="no"?>
<!-- Created with Inkscape (http://www.inkscape.org/) -->

<svg
   width="210mm"
   height="297mm"
   viewBox="0 0 210 297"
   version="1.1"
   id="svg5"
   inkscape:version="1.1.1 (3bf5ae0d25, 2021-09-20)"
   sodipodi:docname="dessin.svg"
   xmlns:inkscape="http://www.inkscape.org/namespaces/inkscape"
   xmlns:sodipodi="http://sodipodi.sourceforge.net/DTD/sodipodi-0.dtd"
   xmlns="http://www.w3.org/2000/svg"
   xmlns:svg="http://www.w3.org/2000/svg">
  <sodipodi:namedview
     id="namedview7"
     pagecolor="#505050"
     bordercolor="#eeeeee"
     borderopacity="1"
     inkscape:pageshadow="0"
     inkscape:pageopacity="0"
     inkscape:pagecheckerboard="0"
     inkscape:document-units="mm"
     showgrid="false"
     inkscape:zoom="1.8116734"
     inkscape:cx="323.73384"
     inkscape:cy="409.2901"
     inkscape:window-width="1920"
     inkscape:window-height="1017"
     inkscape:window-x="-8"
     inkscape:window-y="-8"
     inkscape:window-maximized="1"
     inkscape:current-layer="layer1" />
  <defs
     id="defs2" />
  <g
     inkscape:label="Calque 1"
     inkscape:groupmode="layer"
     id="layer1">
    <g
       id="g4453">
      <circle
         style="fill:#ffffff;fill-rule:evenodd;stroke-width:0.264583;fill-opacity:1"
         id="path1156"
         cx="86.311775"
         cy="103.25284"
         r="33.443989" />
      <circle
         style="fill:#00a900;fill-opacity:1;fill-rule:evenodd;stroke-width:0.249563"
         id="circle3092"
         cx="86.311775"
         cy="103.25284"
         r="31.545422" />
      <path
         style="fill:#000000;stroke:none;stroke-width:0.218175"
         d="m 75.896099,82.508247 4.799843,-1.870415 8.072457,-0.74768 c -1.410715,0.41693 -2.9111,0.114769 -4.36348,0.255261 -2.726317,0.263777 -5.4943,1.205859 -7.854284,2.583632 -1.391955,0.812475 -2.848497,1.617107 -3.318442,3.269989 -0.655176,2.305017 1.621477,4.890618 2.69664,6.763418 2.619615,4.563998 6.362847,15.940058 13.275912,13.503278 2.072662,-0.73066 3.069072,-2.77301 4.084017,-4.55811 1.909472,-3.358365 3.88526,-6.678552 5.795148,-10.036034 0.865506,-1.521546 2.18612,-3.165497 1.96597,-5.018016 -0.30566,-2.570314 -3.256473,-4.901086 -4.863544,-6.763418 -2.961505,-3.431882 -6.417814,-9.349809 -11.781417,-6.73311 -1.371883,0.669382 -2.236508,1.996751 -3.216335,3.116653 -1.776807,2.03098 -3.75085,4.020086 -5.292485,6.234552 m 14.399528,-2.399922 v 0.218174 h -1.090882 l 1.090882,-0.218174 m 0.436347,0.290829 c 0.168648,0 0.03489,0.108686 -0.07267,0.07283 l 0.07267,-0.07283 m -4.282758,5.526153 c 1.511078,-0.569444 1.598555,3.195157 0.133337,3.77747 -3.369055,1.339148 -2.117833,-3.029583 -0.133337,-3.77747 m -2.698817,3.564531 1.309039,1.309039 c -0.66129,1.199312 -2.3216,1.000123 -3.490787,0.654536 l 2.181748,-1.963575 m -2.836284,2.836267 c 1.769396,1.412252 4.997735,1.302941 7.199764,1.309056 v 0.654519 c -1.690418,0.213596 -7.011251,0.681139 -7.199764,-1.963575 m 5.890725,0.218174 v 0.218173 h -0.65452 l 0.65452,-0.218173 m -5.890725,1.090882 1.745402,2.181748 v -1.090882 l 3.272614,0.872709 0.436363,3.927133 c -2.34822,-0.02113 -5.459389,-3.467017 -5.454379,-5.890708 m 8.072457,3.272614 -0.218173,1.527228 h -0.218157 l 0.43633,-1.527228 M 67.169123,127.23405 v 0.87271 l 6.327055,3.27261 -1.090866,-3.05444 h 0.218173 c 0.274469,1.00382 0.650166,2.593 1.450652,3.30687 2.383338,2.12633 8.180231,2.36523 11.203474,2.36567 0,-6.08992 0.433306,-13.53119 -2.691614,-18.9812 -1.227884,-2.14138 -3.679956,-2.76187 -4.865294,-4.79983 -1.425777,-2.45207 0.999451,-3.97166 0.203767,-6.32707 -1.745386,-5.166163 -7.917767,-1.71027 -10.247226,1.09175 -2.594533,3.12143 -3.413122,8.83891 -4.689876,12.65326 -0.454898,1.35922 -1.634778,3.13713 -1.577186,4.58165 0.06195,1.55231 4.240228,5.68499 5.758941,5.01802 m 30.108095,-26.39912 -2.836268,7.19976 3.490788,-2.18175 -0.436347,3.27262 3.490789,-2.39992 -0.65452,2.61809 c 1.07233,0.59736 1.89463,0.72108 2.18174,-0.65452 h 0.21818 l -0.43635,7.19977 1.09087,-0.65452 -3.490787,5.23619 c 3.024557,-1.10724 5.945037,-3.85996 6.763397,-6.98159 h 0.21819 v 3.27261 h 0.21817 l 1.09088,-5.01802 h 0.21817 c -0.1026,2.3864 -1.33807,4.43811 -1.5076,6.76342 -0.10884,1.49341 1.04834,3.0239 1.5076,0.87269 h 0.21817 l 0.21818,5.01802 c 2.53016,-0.71277 1.10658,-3.12578 1.09088,-5.01802 h 0.21817 l 0.65452,3.27263 c 1.15786,-1.22069 -0.4586,-5.00385 -0.82142,-6.54524 -0.81598,-3.46439 -1.49494,-7.65618 -3.83203,-10.47217 -2.03841,-2.4562 -5.8593,-3.93849 -8.873372,-4.80005 m 2.399922,2.83627 -0.654536,1.96357 h -0.218173 l 0.872709,-1.96357 m -30.980789,3.92713 c 0.49133,3.32608 1.950033,7.00952 3.272614,10.03605 h -0.218173 l -0.872709,-1.52723 H 70.65991 l 0.218173,0.87269 H 70.65991 c -1.004909,-1.93215 -2.181524,-2.44202 -2.181748,-4.79984 h 0.218189 l 1.527213,3.70898 h 0.218173 c -0.271844,-2.15033 -2.4813,-6.40082 -1.745386,-8.29065 m 37.017009,0.80005 -0.0728,0.14535 0.0728,-0.14535 m -0.1455,0.50901 c -0.16778,2.0539 -0.8823,4.57184 -1.96357,6.32707 h -0.21818 l 2.18175,-6.32707 m 1.7454,0.87269 c -0.56595,2.44552 -1.97884,5.65073 -4.36349,6.76342 l 4.36349,-6.76342 m -36.871507,6.1089 0.218173,0.21817 -0.218173,-0.21817 m -2.399921,1.09086 c 2.024016,1.57937 1.49515,3.34942 2.398832,5.45437 0.398171,0.92746 1.249702,1.51871 1.710715,2.39992 0.796116,1.52177 1.520234,3.79166 1.999351,5.45437 h -0.218174 l -3.054457,-6.32707 1.527229,4.3635 h -0.218173 c -1.163089,-2.14423 -4.121105,-3.20804 -6.327072,-3.92715 v -0.21817 l 5.672552,2.61809 c -1.003389,-2.72892 -3.732107,-6.91831 -3.490803,-9.81786 m -2.836268,0.43635 v 2.61809 h -0.218173 l 0.218173,-2.61809 m 3.272614,0.21819 1.090882,3.05444 h 0.218173 l -1.309055,-3.05444 m 2.109109,0.36369 -0.07283,0.14534 0.07283,-0.14534 m 1.599868,-0.1455 -0.218174,0.21817 0.218174,-0.21817 m 0.218173,0.43634 -0.218173,0.21818 0.218173,-0.21818 m -1.963575,0.21818 c -0.105325,1.91949 1.497344,3.30338 2.468863,4.79984 1.351809,2.08225 2.467774,4.56072 3.640035,6.76342 -2.292371,-1.89921 -3.887869,-5.94854 -5.392192,-8.50969 -0.562016,-0.95669 -1.403303,-1.99717 -0.716706,-3.05357 m 39.489607,0 v 0.87269 h -0.21817 l 0.21817,-0.87269 m -45.598489,5.23619 0.65452,0.21817 v 0.21817 l -0.872693,-0.21817 0.218173,-0.21817 m 1.090866,0.21817 -0.218173,0.21817 0.218173,-0.21817 m 0.872709,2.18175 0.65452,1.09086 h -0.218174 l -0.436346,-1.09086 m 5.236189,0.65452 0.218173,0.21817 -0.218173,-0.21817 m 2.836268,3.70897 -0.218173,0.21818 0.218173,-0.21818 m 0.218173,0.43635 -0.218173,0.21817 z"
         id="path1016" />
    </g>
  </g>
</svg>
